<svg width="165" height="50" viewBox="0 0 165 50" fill="none" xmlns="http://www.w3.org/2000/svg">
<rect x="0.5" y="0.5" width="164" height="49" rx="11.5" fill="white" stroke="#767676"/>
<path d="M37.0601 23.7486C37.0249 19.8391 40.266 17.937 40.4142 17.8485C38.5787 15.1762 35.7336 14.8111 34.7338 14.7819C32.3442 14.5308 30.0264 16.2097 28.8091 16.2097C27.5676 16.2097 25.6931 14.8062 23.6729 14.8475C21.0732 14.8875 18.6411 16.3904 17.3073 18.7243C14.5545 23.483 16.6075 30.4761 19.2449 34.3226C20.5642 36.2064 22.1058 38.3098 24.1236 38.2358C26.0977 38.1546 26.8351 36.9791 29.2173 36.9791C31.5777 36.9791 32.2701 38.2358 34.328 38.1885C36.4467 38.1546 37.7805 36.2962 39.0537 34.3954C40.5782 32.2362 41.1905 30.1098 41.2148 30.0006C41.165 29.9836 37.1002 28.4346 37.0601 23.7486Z" fill="#212120"/>
<path d="M33.1728 12.2516C34.2345 10.9257 34.961 9.12197 34.7593 7.2915C33.2226 7.35943 31.3008 8.3529 30.1941 9.64963C29.2149 10.7923 28.3403 12.6652 28.5662 14.4265C30.2925 14.5551 32.0649 13.5568 33.1728 12.2516Z" fill="#212120"/>
<path d="M65.6289 37.9652H62.8701L61.3588 33.2235H56.106L54.6664 37.9652H51.9805L57.1847 21.8223H60.3991L65.6289 37.9652ZM60.9033 31.2341L59.5366 27.0189C59.3921 26.5882 59.1211 25.5742 58.7215 23.9778H58.6729C58.5137 24.6644 58.2574 25.6785 57.9051 27.0189L56.5627 31.2341H60.9033Z" fill="#212120"/>
<path d="M79.0127 32.0019C79.0127 33.9815 78.477 35.5463 77.4055 36.695C76.4458 37.7176 75.2541 38.2283 73.8315 38.2283C72.296 38.2283 71.193 37.6776 70.5212 36.5762H70.4726V42.708H67.8826V30.1568C67.8826 28.9123 67.8498 27.635 67.7866 26.3249H70.0644L70.209 28.1699H70.2576C71.1213 26.7798 72.4321 26.0859 74.1911 26.0859C75.5663 26.0859 76.7143 26.6282 77.6327 27.7138C78.5535 28.8007 79.0127 30.2296 79.0127 32.0019ZM76.3741 32.0965C76.3741 30.9635 76.119 30.0295 75.6064 29.2944C75.0464 28.5278 74.2944 28.1444 73.3517 28.1444C72.7127 28.1444 72.132 28.3579 71.6133 28.7788C71.0933 29.2034 70.7532 29.7578 70.5941 30.4443C70.5139 30.7646 70.4738 31.0266 70.4738 31.2328V33.1736C70.4738 34.0203 70.7338 34.7348 71.2537 35.3183C71.7736 35.9017 72.4491 36.1928 73.28 36.1928C74.2555 36.1928 75.0148 35.8168 75.5578 35.0672C76.102 34.3163 76.3741 33.3265 76.3741 32.0965Z" fill="#212120"/>
<path d="M92.4202 32.0019C92.4202 33.9815 91.8845 35.5463 90.8118 36.695C89.8533 37.7176 88.6616 38.2283 87.239 38.2283C85.7035 38.2283 84.6004 37.6776 83.9299 36.5762H83.8813V42.708H81.2913V30.1568C81.2913 28.9123 81.2585 27.635 81.1953 26.3249H83.4731L83.6177 28.1699H83.6662C84.5288 26.7798 85.8396 26.0859 87.5998 26.0859C88.9738 26.0859 90.1218 26.6282 91.0426 27.7138C91.9598 28.8007 92.4202 30.2296 92.4202 32.0019ZM89.7816 32.0965C89.7816 30.9635 89.5253 30.0295 89.0127 29.2944C88.4526 28.5278 87.7031 28.1444 86.7592 28.1444C86.119 28.1444 85.5395 28.3579 85.0196 28.7788C84.4996 29.2034 84.1607 29.7578 84.0015 30.4443C83.9226 30.7646 83.8813 31.0266 83.8813 31.2328V33.1736C83.8813 34.0203 84.1412 34.7348 84.6588 35.3183C85.1787 35.9005 85.8541 36.1928 86.6875 36.1928C87.663 36.1928 88.4223 35.8168 88.9653 35.0672C89.5095 34.3163 89.7816 33.3265 89.7816 32.0965Z" fill="#212120"/>
<path d="M107.411 33.4384C107.411 34.8116 106.934 35.9288 105.975 36.7912C104.922 37.7337 103.456 38.2044 101.572 38.2044C99.8321 38.2044 98.4375 37.8696 97.3818 37.1988L97.982 35.0432C99.119 35.7298 100.367 36.0743 101.726 36.0743C102.702 36.0743 103.461 35.8535 104.006 35.4144C104.549 34.9753 104.82 34.3858 104.82 33.6507C104.82 32.9957 104.597 32.4437 104.148 31.9961C103.703 31.5485 102.958 31.1325 101.918 30.7479C99.0874 29.6938 97.6734 28.1496 97.6734 26.119C97.6734 24.792 98.169 23.7039 99.1615 22.8572C100.15 22.0093 101.47 21.5859 103.119 21.5859C104.591 21.5859 105.813 21.8419 106.788 22.3526L106.141 24.4608C105.23 23.9659 104.199 23.7184 103.047 23.7184C102.135 23.7184 101.424 23.9428 100.913 24.3892C100.482 24.7883 100.266 25.2747 100.266 25.8509C100.266 26.489 100.512 27.0167 101.008 27.4315C101.439 27.8148 102.223 28.2297 103.36 28.6773C104.751 29.2365 105.773 29.8903 106.43 30.64C107.085 31.3872 107.411 32.3224 107.411 33.4384Z" fill="#212120"/>
<path d="M115.974 28.266H113.12V33.9175C113.12 35.355 113.622 36.0731 114.631 36.0731C115.094 36.0731 115.478 36.0331 115.781 35.953L115.853 37.9169C115.343 38.1074 114.671 38.2032 113.839 38.2032C112.816 38.2032 112.017 37.8914 111.439 37.2691C110.865 36.6456 110.576 35.6 110.576 34.131V28.2636H108.875V26.3227H110.576V24.1914L113.12 23.4248V26.3227H115.974V28.266Z" fill="#212120"/>
<path d="M128.855 32.0494C128.855 33.8386 128.342 35.3076 127.32 36.4564C126.247 37.6391 124.823 38.2286 123.048 38.2286C121.338 38.2286 119.976 37.6621 118.96 36.5291C117.945 35.3962 117.437 33.966 117.437 32.2423C117.437 30.4385 117.959 28.9611 119.008 27.8123C120.054 26.6624 121.465 26.0874 123.24 26.0874C124.951 26.0874 126.327 26.6539 127.366 27.7881C128.359 28.8883 128.855 30.3087 128.855 32.0494ZM126.168 32.1331C126.168 31.0596 125.938 30.1389 125.473 29.3711C124.93 28.4419 124.154 27.9785 123.148 27.9785C122.107 27.9785 121.316 28.4431 120.773 29.3711C120.308 30.1401 120.078 31.0754 120.078 32.1816C120.078 33.2552 120.308 34.1759 120.773 34.9425C121.333 35.8717 122.115 36.3351 123.125 36.3351C124.114 36.3351 124.89 35.862 125.45 34.9182C125.927 34.1358 126.168 33.2054 126.168 32.1331Z" fill="#212120"/>
<path d="M137.274 28.5993C137.018 28.552 136.744 28.5277 136.458 28.5277C135.547 28.5277 134.842 28.871 134.346 29.5588C133.915 30.1653 133.699 30.932 133.699 31.8575V37.965H131.11L131.134 29.9906C131.134 28.649 131.101 27.4275 131.037 26.3261H133.293L133.388 28.5532H133.459C133.733 27.7878 134.164 27.1716 134.754 26.7094C135.331 26.2934 135.955 26.0859 136.626 26.0859C136.866 26.0859 137.082 26.1029 137.274 26.1332V28.5993Z" fill="#212120"/>
<path d="M148.857 31.5947C148.857 32.058 148.827 32.4486 148.762 32.7677H140.992C141.023 33.9176 141.398 34.7971 142.12 35.4036C142.774 35.9458 143.621 36.2175 144.661 36.2175C145.811 36.2175 146.861 36.0344 147.805 35.6668L148.211 37.4621C147.108 37.9425 145.805 38.1814 144.303 38.1814C142.495 38.1814 141.076 37.6501 140.044 36.5887C139.013 35.5273 138.497 34.102 138.497 32.314C138.497 30.5587 138.977 29.097 139.938 27.9313C140.944 26.6867 142.303 26.0645 144.014 26.0645C145.694 26.0645 146.966 26.6867 147.829 27.9313C148.513 28.9199 148.857 30.1427 148.857 31.5947ZM146.387 30.9239C146.404 30.1572 146.235 29.4949 145.884 28.9357C145.436 28.2164 144.747 27.8573 143.82 27.8573C142.974 27.8573 142.285 28.2079 141.759 28.9114C141.328 29.4706 141.071 30.1414 140.992 30.9226H146.387V30.9239Z" fill="#212120"/>
<path d="M60.0465 11.891C60.0465 13.3188 59.6177 14.3935 58.7612 15.1153C57.9679 15.7812 56.8406 16.1148 55.3804 16.1148C54.6563 16.1148 54.0368 16.0833 53.5181 16.0202V8.21917C54.1947 8.11 54.9236 8.0542 55.7108 8.0542C57.1018 8.0542 58.1502 8.35624 58.8572 8.96033C59.6492 9.64327 60.0465 10.6198 60.0465 11.891ZM58.7041 11.9262C58.7041 11.0007 58.4587 10.291 57.9679 9.79611C57.4771 9.30241 56.7604 9.05495 55.8165 9.05495C55.4156 9.05495 55.0742 9.08164 54.7912 9.13744V15.0679C54.9479 15.0922 55.2346 15.1031 55.6513 15.1031C56.6256 15.1031 57.3775 14.8326 57.9072 14.2916C58.4369 13.7506 58.7041 12.9621 58.7041 11.9262Z" fill="#212120"/>
<path d="M67.164 13.1382C67.164 14.0176 66.9125 14.7382 66.4096 15.3034C65.8823 15.8845 65.1838 16.1744 64.3116 16.1744C63.4709 16.1744 62.8016 15.8966 62.3023 15.3386C61.8042 14.7818 61.5552 14.0795 61.5552 13.2328C61.5552 12.3473 61.8115 11.6207 62.3266 11.0566C62.8417 10.4926 63.5341 10.21 64.4063 10.21C65.247 10.21 65.9224 10.4877 66.4339 11.0445C66.9198 11.5855 67.164 12.2842 67.164 13.1382ZM65.8435 13.1794C65.8435 12.6518 65.7293 12.1993 65.5021 11.8221C65.2348 11.366 64.8546 11.1379 64.3602 11.1379C63.8487 11.1379 63.46 11.366 63.1927 11.8221C62.9644 12.1993 62.8514 12.659 62.8514 13.2025C62.8514 13.7301 62.9656 14.1826 63.1927 14.5598C63.4685 15.0159 63.8524 15.244 64.348 15.244C64.834 15.244 65.2154 15.0123 65.49 14.5477C65.7256 14.1632 65.8435 13.7071 65.8435 13.1794Z" fill="#212120"/>
<path d="M76.7079 10.3262L74.916 16.0444H73.7498L73.0075 13.5613C72.8192 12.9415 72.6662 12.3252 72.5471 11.7139H72.524C72.4135 12.3422 72.2604 12.9572 72.0636 13.5613L71.2752 16.0444H70.0956L68.4106 10.3262H69.719L70.3665 13.0446C70.5232 13.6875 70.652 14.3 70.7552 14.8799H70.7783C70.8731 14.4019 71.0298 13.793 71.2509 13.0567L72.0636 10.3274H73.1011L73.8798 12.9985C74.0681 13.6499 74.2211 14.277 74.339 14.8811H74.3742C74.4604 14.2928 74.5904 13.6656 74.7629 12.9985L75.4578 10.3274H76.7079V10.3262Z" fill="#212120"/>
<path d="M83.3077 16.0448H82.0346V12.7697C82.0346 11.7604 81.6507 11.2558 80.8805 11.2558C80.5027 11.2558 80.1978 11.3941 79.9609 11.6719C79.7264 11.9497 79.6074 12.2772 79.6074 12.652V16.0436H78.3342V11.9606C78.3342 11.4584 78.3185 10.9137 78.2881 10.3242H79.4069L79.4665 11.2182H79.5017C79.6499 10.9404 79.871 10.7112 80.1613 10.528C80.5063 10.3145 80.8926 10.2065 81.3154 10.2065C81.8499 10.2065 82.2945 10.3788 82.648 10.7245C83.0878 11.1478 83.3077 11.7798 83.3077 12.6192V16.0448Z" fill="#212120"/>
<path d="M86.8188 16.0445H85.5469V7.70264H86.8188V16.0445Z" fill="#212120"/>
<path d="M94.3139 13.1382C94.3139 14.0176 94.0624 14.7382 93.5595 15.3034C93.0322 15.8845 92.3325 16.1744 91.4615 16.1744C90.6196 16.1744 89.9503 15.8966 89.4522 15.3386C88.9541 14.7818 88.7051 14.0795 88.7051 13.2328C88.7051 12.3473 88.9614 11.6207 89.4765 11.0566C89.9916 10.4926 90.684 10.21 91.555 10.21C92.3969 10.21 93.0711 10.4877 93.5838 11.0445C94.0697 11.5855 94.3139 12.2842 94.3139 13.1382ZM92.9922 13.1794C92.9922 12.6518 92.878 12.1993 92.6508 11.8221C92.3847 11.366 92.0033 11.1379 91.5101 11.1379C90.9974 11.1379 90.6087 11.366 90.3426 11.8221C90.1143 12.1993 90.0013 12.659 90.0013 13.2025C90.0013 13.7301 90.1155 14.1826 90.3426 14.5598C90.6184 15.0159 91.0023 15.244 91.4979 15.244C91.9839 15.244 92.3641 15.0123 92.6386 14.5477C92.8755 14.1632 92.9922 13.7071 92.9922 13.1794Z" fill="#212120"/>
<path d="M100.476 16.0446H99.3326L99.2379 15.3859H99.2026C98.8115 15.9112 98.2539 16.1744 97.5298 16.1744C96.9892 16.1744 96.5519 16.0009 96.2227 15.6564C95.9238 15.3435 95.7744 14.9541 95.7744 14.4919C95.7744 13.7932 96.066 13.2607 96.6527 12.8919C97.2383 12.5232 98.0619 12.3424 99.1225 12.3509V12.2442C99.1225 11.4909 98.7264 11.1149 97.9331 11.1149C97.3683 11.1149 96.8702 11.2568 96.4401 11.5382L96.1814 10.7037C96.7135 10.3749 97.3707 10.21 98.1457 10.21C99.6424 10.21 100.393 10.9984 100.393 12.5753V14.6811C100.393 15.2525 100.421 15.7074 100.476 16.0446ZM99.154 14.0795V13.1976C97.7497 13.1734 97.0475 13.5579 97.0475 14.35C97.0475 14.6484 97.1277 14.8716 97.2917 15.0208C97.4557 15.17 97.6647 15.244 97.9137 15.244C98.1931 15.244 98.4543 15.1554 98.6924 14.9796C98.9317 14.8025 99.0787 14.578 99.1334 14.3027C99.1468 14.2408 99.154 14.1656 99.154 14.0795Z" fill="#212120"/>
<path d="M107.71 16.0445H106.58L106.52 15.1263H106.485C106.124 15.825 105.51 16.1743 104.646 16.1743C103.956 16.1743 103.381 15.9038 102.926 15.3628C102.47 14.8218 102.243 14.1195 102.243 13.257C102.243 12.3315 102.49 11.5819 102.985 11.0093C103.465 10.4756 104.053 10.2087 104.753 10.2087C105.522 10.2087 106.06 10.4671 106.366 10.9851H106.39V7.70264H107.665V14.504C107.665 15.0608 107.679 15.5739 107.71 16.0445ZM106.39 13.6331V12.6796C106.39 12.5147 106.378 12.3812 106.355 12.2793C106.284 11.9737 106.129 11.7165 105.895 11.5091C105.658 11.3017 105.372 11.1973 105.043 11.1973C104.568 11.1973 104.196 11.3854 103.923 11.7626C103.652 12.1398 103.515 12.6214 103.515 13.2097C103.515 13.775 103.645 14.2335 103.906 14.5865C104.182 14.9625 104.554 15.1506 105.019 15.1506C105.437 15.1506 105.771 14.9941 106.025 14.6799C106.27 14.39 106.39 14.0406 106.39 13.6331Z" fill="#212120"/>
<path d="M118.598 13.1382C118.598 14.0176 118.347 14.7382 117.844 15.3034C117.316 15.8845 116.619 16.1744 115.746 16.1744C114.906 16.1744 114.237 15.8966 113.736 15.3386C113.238 14.7818 112.989 14.0795 112.989 13.2328C112.989 12.3473 113.246 11.6207 113.761 11.0566C114.276 10.4926 114.968 10.21 115.842 10.21C116.681 10.21 117.358 10.4877 117.868 11.0445C118.354 11.5855 118.598 12.2842 118.598 13.1382ZM117.279 13.1794C117.279 12.6518 117.165 12.1993 116.937 11.8221C116.669 11.366 116.29 11.1379 115.794 11.1379C115.284 11.1379 114.895 11.366 114.627 11.8221C114.398 12.1993 114.285 12.659 114.285 13.2025C114.285 13.7301 114.4 14.1826 114.627 14.5598C114.903 15.0159 115.286 15.244 115.782 15.244C116.268 15.244 116.651 15.0123 116.925 14.5477C117.16 14.1632 117.279 13.7071 117.279 13.1794Z" fill="#212120"/>
<path d="M125.444 16.0448H124.172V12.7697C124.172 11.7604 123.788 11.2558 123.016 11.2558C122.639 11.2558 122.334 11.3941 122.098 11.6719C121.862 11.9497 121.745 12.2772 121.745 12.652V16.0436H120.47V11.9606C120.47 11.4584 120.456 10.9137 120.425 10.3242H121.543L121.602 11.2182H121.638C121.787 10.9404 122.008 10.7112 122.297 10.528C122.644 10.3145 123.029 10.2065 123.453 10.2065C123.986 10.2065 124.431 10.3788 124.784 10.7245C125.225 11.1478 125.444 11.7798 125.444 12.6192V16.0448Z" fill="#212120"/>
<path d="M134.012 11.2786H132.61V14.0565C132.61 14.7624 132.859 15.1154 133.352 15.1154C133.58 15.1154 133.77 15.096 133.919 15.056L133.952 16.0203C133.701 16.115 133.37 16.1623 132.963 16.1623C132.46 16.1623 132.069 16.0094 131.786 15.7037C131.502 15.3981 131.361 14.8837 131.361 14.162V11.2786H130.524V10.3264H131.361V9.27838L132.609 8.90234V10.3252H134.01V11.2786H134.012Z" fill="#212120"/>
<path d="M140.751 16.0445H139.477V12.7937C139.477 11.7687 139.093 11.2556 138.324 11.2556C137.734 11.2556 137.33 11.5527 137.109 12.1471C137.072 12.2721 137.05 12.4249 137.05 12.6044V16.0433H135.778V7.70264H137.05V11.1488H137.074C137.475 10.5217 138.05 10.2087 138.794 10.2087C139.321 10.2087 139.758 10.381 140.104 10.7267C140.535 11.1573 140.751 11.7978 140.751 12.6445V16.0445Z" fill="#212120"/>
<path d="M147.704 12.9147C147.704 13.1427 147.687 13.3344 147.657 13.4909H143.839C143.856 14.0561 144.038 14.4868 144.391 14.7852C144.714 15.052 145.131 15.1855 145.641 15.1855C146.206 15.1855 146.721 15.0957 147.185 14.915L147.385 15.798C146.842 16.0334 146.203 16.151 145.463 16.151C144.576 16.151 143.877 15.8902 143.372 15.3686C142.864 14.847 142.613 14.1471 142.613 13.2689C142.613 12.4064 142.847 11.6883 143.32 11.1158C143.813 10.5044 144.48 10.1987 145.322 10.1987C146.145 10.1987 146.771 10.5044 147.194 11.1158C147.535 11.601 147.704 12.2014 147.704 12.9147ZM146.489 12.586C146.499 12.2087 146.415 11.8836 146.243 11.6095C146.022 11.2565 145.685 11.0794 145.229 11.0794C144.814 11.0794 144.475 11.2516 144.216 11.5973C144.005 11.8727 143.88 12.2014 143.839 12.586H146.489Z" fill="#212120"/>
</svg>
