<svg width="165" height="50" viewBox="0 0 165 50" fill="none" xmlns="http://www.w3.org/2000/svg">
<rect x="0.5" y="0.5" width="164" height="49" rx="11.5" fill="white" stroke="#767676"/>
<path d="M86.7782 17.0704C85.6764 17.0704 84.7475 16.6935 84.0129 15.9515C83.2844 15.2304 82.8777 14.2362 82.8959 13.2212C82.8959 12.138 83.2723 11.2209 84.0129 10.4938C84.7445 9.7519 85.6733 9.375 86.7752 9.375C87.8649 9.375 88.7937 9.7519 89.5405 10.4938C90.2811 11.2447 90.6575 12.1617 90.6575 13.2212C90.6453 14.3074 90.269 15.2244 89.5405 15.9486C88.8089 16.6964 87.8801 17.0704 86.7782 17.0704ZM53.9926 17.0704C52.915 17.0704 51.9801 16.6994 51.2152 15.9664C50.4563 15.2363 50.0708 14.3133 50.0708 13.2242C50.0708 12.135 50.4563 11.212 51.2152 10.482C51.9649 9.74894 52.8998 9.37797 53.9926 9.37797C54.5268 9.37797 55.0459 9.48184 55.5437 9.69255C56.0324 9.89732 56.43 10.1763 56.7245 10.5176L56.7973 10.6036L55.9747 11.3931L55.8897 11.2951C55.4253 10.755 54.803 10.4909 53.9804 10.4909C53.2459 10.4909 52.6054 10.7461 52.0772 11.2506C51.546 11.7581 51.2759 12.4229 51.2759 13.2271C51.2759 14.0314 51.546 14.6962 52.0772 15.2037C52.6054 15.7082 53.2459 15.9634 53.9804 15.9634C54.7636 15.9634 55.4223 15.7082 55.9352 15.2037C56.2388 14.9069 56.427 14.4914 56.4938 13.9661H53.856V12.8562H57.626L57.6412 12.9571C57.6685 13.144 57.6958 13.3369 57.6958 13.515C57.6958 14.5389 57.3801 15.3669 56.7548 15.9782C56.0445 16.7024 55.1157 17.0704 53.9926 17.0704ZM97.5843 16.9131H96.4218L92.8612 11.3426L92.8916 12.3457V16.9101H91.729V9.53526H93.0555L93.0919 9.59165L96.44 14.8386L96.4096 13.8385V9.53526H97.5843V16.9131ZM78.0423 16.9131H76.8645V10.6452H74.8217V9.53526H80.0821V10.6452H78.0392V16.9131H78.0423ZM73.8625 16.9131H72.6878V9.53526H73.8625V16.9131ZM67.2604 16.9131H66.0857V10.6452H64.0429V9.53526H69.3033V10.6452H67.2604V16.9131ZM63.2992 16.9012H58.7946V9.53526H63.2992V10.6452H59.9724V12.6692H62.9744V13.7673H59.9724V15.7913H63.2992V16.9012ZM84.875 15.1888C85.4001 15.7022 86.0376 15.9604 86.7782 15.9604C87.5401 15.9604 88.1624 15.7082 88.6814 15.1888C89.1975 14.6843 89.4585 14.0225 89.4585 13.2242C89.4585 12.4258 89.1974 11.7611 88.6845 11.2595C88.1593 10.7461 87.5189 10.4879 86.7812 10.4879C86.0194 10.4879 85.3971 10.7402 84.8811 11.2595C84.3651 11.764 84.104 12.4258 84.104 13.2242C84.104 14.0225 84.362 14.6873 84.875 15.1888Z" fill="#212120"/>
<path fill-rule="evenodd" clip-rule="evenodd" d="M82.7864 27.2142C79.9179 27.2142 77.5928 29.3421 77.5928 32.2772C77.5928 35.1856 79.9331 37.3402 82.7864 37.3402C85.6549 37.3402 87.9801 35.1975 87.9801 32.2772C87.9801 29.3421 85.6549 27.2142 82.7864 27.2142ZM82.7864 35.334C81.2171 35.334 79.8663 34.0638 79.8663 32.2654C79.8663 30.4402 81.2202 29.1967 82.7864 29.1967C84.3558 29.1967 85.7065 30.4402 85.7065 32.2654C85.7096 34.0757 84.3558 35.334 82.7864 35.334ZM71.4552 27.2142C68.5867 27.2142 66.2615 29.3421 66.2615 32.2772C66.2615 35.1856 68.6019 37.3402 71.4552 37.3402C74.3236 37.3402 76.6488 35.1975 76.6488 32.2772C76.6488 29.3421 74.3206 27.2142 71.4552 27.2142ZM71.4552 35.334C69.8858 35.334 68.5351 34.0638 68.5351 32.2654C68.5351 30.4402 69.8889 29.1967 71.4552 29.1967C73.0245 29.1967 74.3752 30.4402 74.3752 32.2654C74.3752 34.0757 73.0245 35.334 71.4552 35.334ZM57.9718 28.7604V30.9032H63.2322C63.0713 32.1051 62.6645 32.9925 62.0423 33.6009C61.2713 34.3547 60.0814 35.1738 57.9839 35.1738C54.7512 35.1738 52.2227 32.6215 52.2227 29.4608C52.2227 26.3001 54.7512 23.7479 57.9839 23.7479C59.7293 23.7479 61.0011 24.4215 61.9452 25.2822L63.4993 23.7627C62.188 22.534 60.4426 21.5933 57.9961 21.5933C53.5613 21.5933 49.8398 25.1249 49.8398 29.4489C49.8398 33.7849 53.5583 37.3046 57.9961 37.3046C60.391 37.3046 62.188 36.5389 63.6086 35.0966C65.0565 33.681 65.5148 31.6837 65.5148 30.0722C65.5148 29.5706 65.4754 29.1195 65.3934 28.7367H57.9687C57.9718 28.7337 57.9718 28.7604 57.9718 28.7604ZM113.123 30.4283C112.688 29.2917 111.377 27.2023 108.688 27.2023C106.023 27.2023 103.807 29.2531 103.807 32.2654C103.807 35.1085 105.998 37.3284 108.946 37.3284C111.313 37.3284 112.692 35.9127 113.259 35.0818L111.502 33.9303C110.919 34.7761 110.108 35.3311 108.958 35.3311C107.795 35.3311 106.982 34.8147 106.442 33.7967L113.365 30.9922C113.365 30.9952 113.123 30.4283 113.123 30.4283ZM106.062 32.1199C106.007 30.1642 107.616 29.17 108.767 29.17C109.674 29.17 110.43 29.6062 110.688 30.2413L106.062 32.1199ZM100.437 37.0257H102.711V22.1512H100.437V37.0257ZM96.7039 28.339H96.6219C96.1089 27.7425 95.1346 27.2023 93.89 27.2023C91.3069 27.2023 88.9271 29.4252 88.9271 32.2802C88.9271 35.1233 91.2947 37.3195 93.89 37.3195C95.1194 37.3195 96.1089 36.7764 96.6219 36.168H96.7039V36.8951C96.7039 38.8271 95.6476 39.8688 93.9447 39.8688C92.5514 39.8688 91.6863 38.8894 91.3342 38.0703L89.3581 38.8775C89.9258 40.213 91.4405 41.8661 93.9417 41.8661C96.6068 41.8661 98.8651 40.3318 98.8651 36.5894V27.5051H96.716V28.339C96.7191 28.339 96.7039 28.339 96.7039 28.339ZM94.0934 35.334C92.5241 35.334 91.2128 34.052 91.2128 32.2802C91.2128 30.4936 92.5241 29.1997 94.0934 29.1997C95.6476 29.1997 96.8526 30.5084 96.8526 32.2802C96.8678 34.052 95.6506 35.334 94.0934 35.334ZM123.768 22.1512H118.331V37.0257H120.605V31.3928H123.771C126.287 31.3928 128.761 29.6092 128.761 26.778C128.761 23.9467 126.296 22.1512 123.768 22.1512ZM123.835 29.3154H120.602V24.2108H123.835C125.537 24.2108 126.5 25.5849 126.5 26.7631C126.5 27.9294 125.525 29.3154 123.835 29.3154ZM137.873 27.1875C136.222 27.1875 134.519 27.9027 133.815 29.4608L135.831 30.2799C136.265 29.4608 137.06 29.1818 137.901 29.1818C139.079 29.1818 140.268 29.8704 140.296 31.099V31.2563C139.889 31.0308 138.997 30.6865 137.928 30.6865C135.752 30.6865 133.545 31.8499 133.545 34.0312C133.545 36.0285 135.33 37.3106 137.318 37.3106C138.845 37.3106 139.686 36.6369 140.211 35.8564H140.293V37.0079H142.484V31.3097C142.484 28.6566 140.469 27.1875 137.873 27.1875ZM137.588 35.334C136.844 35.334 135.803 34.9779 135.803 34.0638C135.803 32.9123 137.102 32.4761 138.21 32.4761C139.212 32.4761 139.686 32.6868 140.281 32.9776C140.117 34.3131 138.963 35.3222 137.588 35.334ZM150.48 27.5051L147.869 33.957H147.787L145.083 27.5051H142.636L146.694 36.5241L144.381 41.5367H146.749L152.993 27.5051H150.48ZM130.015 37.0257H132.288V22.1512H130.015V37.0257Z" fill="#212120"/>
<path fill-rule="evenodd" clip-rule="evenodd" d="M12.5555 10.2896C12.2034 10.6606 12 11.2274 12 11.9694V38.2845C12 39.0264 12.2034 39.5933 12.5676 39.9494L12.6617 40.0295L27.7418 25.2857V24.9563L12.6496 10.2095L12.5555 10.2896Z" fill="url(#paint0_linear_5500_21365)"/>
<path fill-rule="evenodd" clip-rule="evenodd" d="M32.7597 30.2151L27.73 25.2975V24.9532L32.7597 20.0356L32.869 20.1009L38.8184 23.407C40.5213 24.3448 40.5213 25.894 38.8184 26.8437L32.869 30.1498L32.7597 30.2151Z" fill="url(#paint1_linear_5500_21365)"/>
<path fill-rule="evenodd" clip-rule="evenodd" d="M32.8688 30.1494L27.7298 25.125L12.5557 39.9609C13.1111 40.5426 14.043 40.6078 15.0842 40.041L32.8688 30.1494Z" fill="url(#paint2_linear_5500_21365)"/>
<path fill-rule="evenodd" clip-rule="evenodd" d="M32.8688 20.1007L15.0842 10.2239C14.043 9.64226 13.1081 9.72239 12.5557 10.3041L27.7298 25.1251L32.8688 20.1007Z" fill="url(#paint3_linear_5500_21365)"/>
<defs>
<linearGradient id="paint0_linear_5500_21365" x1="26.3891" y1="11.6854" x2="2.30713" y2="18.2484" gradientUnits="userSpaceOnUse">
<stop stop-color="#00A0FF"/>
<stop offset="0.00657" stop-color="#00A1FF"/>
<stop offset="0.2601" stop-color="#00BEFF"/>
<stop offset="0.5122" stop-color="#00D2FF"/>
<stop offset="0.7604" stop-color="#00DFFF"/>
<stop offset="1" stop-color="#00E3FF"/>
</linearGradient>
<linearGradient id="paint1_linear_5500_21365" x1="41.0391" y1="25.1254" x2="11.5865" y2="25.1254" gradientUnits="userSpaceOnUse">
<stop stop-color="#FFE000"/>
<stop offset="0.4087" stop-color="#FFBD00"/>
<stop offset="0.7754" stop-color="#FFA500"/>
<stop offset="1" stop-color="#FF9C00"/>
</linearGradient>
<linearGradient id="paint2_linear_5500_21365" x1="30.0744" y1="27.859" x2="11.3216" y2="60.1411" gradientUnits="userSpaceOnUse">
<stop stop-color="#FF3A44"/>
<stop offset="1" stop-color="#C31162"/>
</linearGradient>
<linearGradient id="paint3_linear_5500_21365" x1="8.73465" y1="1.53639" x2="17.1009" y2="15.9538" gradientUnits="userSpaceOnUse">
<stop stop-color="#32A071"/>
<stop offset="0.0685" stop-color="#2DA771"/>
<stop offset="0.4762" stop-color="#15CF74"/>
<stop offset="0.8009" stop-color="#06E775"/>
<stop offset="1" stop-color="#00F076"/>
</linearGradient>
</defs>
</svg>
